<svg width="33" height="33" viewBox="0 0 33 33" fill="none" xmlns="http://www.w3.org/2000/svg">
<path d="M16.4967 32.9934C14.216 32.9934 12.0778 32.5658 10.0822 31.7105C8.09758 30.8553 6.34868 29.671 4.83552 28.1579C3.32236 26.6338 2.13815 24.8794 1.28289 22.8947C0.427625 20.8991 -7.02217e-06 18.7664 -7.02217e-06 16.4967C-7.02217e-06 14.227 0.427625 12.0943 1.28289 10.0987C2.13815 8.10306 3.32236 6.34868 4.83552 4.83552C6.34868 3.32236 8.09758 2.13815 10.0822 1.28289C12.0778 0.427624 14.216 -7.4394e-06 16.4967 -7.4394e-06C18.7664 -7.4394e-06 20.8991 0.427624 22.8947 1.28289C24.8903 2.13815 26.6392 3.32236 28.1414 4.83552C29.6546 6.34868 30.8388 8.10306 31.6941 10.0987C32.5603 12.0943 32.9934 14.227 32.9934 16.4967C32.9934 18.7664 32.5603 20.8991 31.6941 22.8947C30.8388 24.8794 29.6546 26.6338 28.1414 28.1579C26.6392 29.671 24.8903 30.8553 22.8947 31.7105C20.8991 32.5658 18.7664 32.9934 16.4967 32.9934ZM24.9178 16.4803C24.9178 16.3487 24.8903 16.2226 24.8355 16.102C24.7917 15.9814 24.7039 15.8553 24.5724 15.7237L19.1118 10.1316C19.0132 10.0329 18.909 9.96162 18.7993 9.91776C18.6897 9.86293 18.5691 9.83552 18.4375 9.83552C18.1743 9.83552 17.955 9.92872 17.7796 10.1151C17.6042 10.2906 17.5164 10.5099 17.5164 10.773C17.5164 11.0691 17.6206 11.3103 17.8289 11.4967L20.8224 14.375L22.0066 15.5263L19.5724 15.4441H9.19407C8.91995 15.4441 8.6842 15.5482 8.48684 15.7566C8.28947 15.9539 8.19078 16.1952 8.19078 16.4803C8.19078 16.7653 8.28947 17.0066 8.48684 17.2039C8.6842 17.4013 8.91995 17.5 9.19407 17.5H19.5724L22.023 17.4342L20.8224 18.602L17.8289 21.4803C17.6206 21.6667 17.5164 21.9079 17.5164 22.2039C17.5164 22.4671 17.6042 22.6864 17.7796 22.8618C17.955 23.0373 18.1743 23.125 18.4375 23.125C18.5691 23.125 18.6897 23.1031 18.7993 23.0592C18.909 23.0044 19.0132 22.9276 19.1118 22.8289L24.5724 17.2368C24.7039 17.1053 24.7917 16.9792 24.8355 16.8585C24.8903 16.7379 24.9178 16.6118 24.9178 16.4803Z" fill="#5F77AD"/>
</svg>
