<svg width="358" height="134" viewBox="0 0 358 134" fill="none" xmlns="http://www.w3.org/2000/svg">
<path d="M144.675 20.3192H158.058V88.1709C158.058 93.5241 156.898 98.2081 154.578 102.223C152.259 106.238 149.091 109.361 145.077 111.591C141.062 113.822 136.422 114.937 131.158 114.937C124.645 114.937 119.247 113.375 114.965 110.253C110.682 107.041 107.738 102.58 106.132 96.8698L117.508 92.9887C118.132 95.0408 119.024 96.8698 120.184 98.4758C121.344 100.082 122.816 101.375 124.601 102.357C126.474 103.249 128.66 103.695 131.158 103.695C134.192 103.695 136.69 102.981 138.653 101.554C140.616 100.126 142.088 98.2973 143.069 96.0668C144.14 93.7471 144.675 91.2936 144.675 88.7062V20.3192ZM224.254 114H212.744L211.807 106.104C209.666 108.959 206.945 111.145 203.644 112.662C200.432 114.178 196.818 114.937 192.804 114.937C187.629 114.937 183.123 113.866 179.287 111.725C175.45 109.494 172.461 106.282 170.32 102.089C168.268 97.8066 167.242 92.498 167.242 86.1634V47.0852H179.956V84.5575C179.956 90.7136 181.205 95.3977 183.703 98.6096C186.291 101.822 190.172 103.427 195.346 103.427C200.432 103.427 204.402 101.777 207.257 98.4758C210.201 95.1746 211.674 90.2675 211.674 83.7545V47.0852H224.254V114ZM233.962 47.0852H245.472L246.275 56.0518C248.148 53.732 250.29 51.8138 252.699 50.2971C255.197 48.6911 257.873 47.5759 260.728 46.9513C263.673 46.3268 266.706 46.3714 269.829 47.0852V58.996C266.885 58.2823 264.03 58.193 261.264 58.7284C258.498 59.2637 256 60.4235 253.769 62.2079C251.628 63.9031 249.888 66.1782 248.55 69.0332C247.212 71.8883 246.542 75.3232 246.542 79.3381V114H233.962V47.0852ZM275.22 47.0852H287.933V114H275.22V47.0852ZM281.643 35.3082C279.235 35.3082 277.227 34.5052 275.621 32.8992C274.015 31.2933 273.212 29.3304 273.212 27.0107C273.212 24.6018 274.015 22.5943 275.621 20.9884C277.227 19.2932 279.235 18.4456 281.643 18.4456C283.963 18.4456 285.926 19.2932 287.532 20.9884C289.227 22.5943 290.075 24.6018 290.075 27.0107C290.075 29.3304 289.227 31.2933 287.532 32.8992C285.926 34.5052 283.963 35.3082 281.643 35.3082ZM293.899 47.0852H308.353L324.011 70.5054L339.669 47.0852H354.123L330.836 80.5426L354.123 114H339.669L324.011 90.3122L308.353 114H293.899L317.052 80.5426L293.899 47.0852Z" fill="#FCFCFC"/>
<path d="M70.8371 20.9067C76.0998 20.9067 80.3672 25.1721 80.3674 30.4351V55.3716H61.2678C57.9101 55.3716 55.1869 52.6496 55.1867 49.2905V48.5806H73.59V30.4351C73.5898 28.9145 72.3577 27.6821 70.8371 27.6821H43.926V54.6616L43.9269 54.7749L43.9279 54.7817V54.7886C43.9966 62.8975 50.5707 69.4533 58.6857 69.4927H80.3674V88.4087C80.3674 95.0438 76.8264 101.175 71.0803 104.493L40.8937 121.92L40.5383 122.125L40.1838 121.92L9.9953 104.493C4.24917 101.175 0.710144 95.0436 0.710144 88.4087V69.4927H22.3908C30.5059 69.4534 37.0809 62.8976 37.1496 54.7886C37.1496 54.7626 37.1503 54.738 37.1506 54.7183V27.6821H10.2502C9.51714 27.6822 8.81485 27.9739 8.29608 28.4927C7.77781 29.011 7.48658 29.7131 7.48651 30.4468V48.5806H25.8908V49.2905C25.8906 52.6495 23.1673 55.3715 19.8098 55.3716H0.710144V30.4468C0.71021 27.9163 1.71527 25.4895 3.50409 23.7007C5.29314 21.9104 7.71998 20.9068 10.2502 20.9067H70.8371ZM7.48651 76.269V88.4087C7.48651 92.6222 9.73513 96.5161 13.3849 98.6235L37.1506 112.344V91.0845C37.1406 82.9252 30.5433 76.3083 22.3918 76.27V76.269H7.48651ZM58.6848 76.269L58.6857 76.27C50.534 76.3081 43.9347 82.9253 43.926 91.0845V112.344L67.6926 98.6235L68.0305 98.4204C71.4806 96.2721 73.59 92.4905 73.59 88.4087V76.269H58.6848ZM40.5383 66.6997C38.9065 69.1816 36.7801 71.308 34.298 72.939C36.7798 74.5706 38.9065 76.6965 40.5383 79.1782C42.1701 76.6963 44.2974 74.5707 46.7785 72.939C44.2971 71.3079 42.1701 69.1818 40.5383 66.6997Z" fill="#FCFCFC" stroke="#FCFCFC" stroke-width="1.42009"/>
</svg>
