<svg width="250" height="250" viewBox="0 0 250 250" fill="none" xmlns="http://www.w3.org/2000/svg">
<g clip-path="url(#clip0_1900_511)">
<rect width="250" height="250" fill="white"/>
<rect width="250" height="250" fill="#1A1C1E"/>
<path fill-rule="evenodd" clip-rule="evenodd" d="M87.0994 112.128H82.0001V86.0221C82.0001 83.0968 83.1526 80.2937 85.2221 78.2288C87.2915 76.1638 90.1001 75.0001 93.0121 75.0001H156.988C163.063 75.0001 168 79.9315 168 86.0086V112.128H163.477H158.953H150.203C146.655 112.128 143.788 109.257 143.788 105.716V103.072H158.953V86.0086C158.953 84.9263 158.067 84.0478 156.988 84.0478H129.523V105.915C129.523 117.173 138.644 126.298 149.908 126.298H168V147.214C168 154.555 164.083 161.343 157.727 165.011L125 183.903L92.273 165.011C85.9168 161.343 82.0001 154.555 82.0001 147.214V126.298H100.093C111.342 126.298 120.477 117.173 120.477 105.915V84.0478H93.0121C92.4947 84.0478 91.9922 84.2562 91.6227 84.6276C91.2531 84.9944 91.046 85.4968 91.046 86.0221V103.072H106.035V105.716C106.035 107.419 105.355 109.049 104.158 110.249C102.96 111.454 101.32 112.128 99.6199 112.128H91.046H87.0994ZM134.224 130.822C130.499 128.476 127.336 125.32 125 121.602C122.65 125.32 119.501 128.476 115.776 130.822C119.501 133.167 122.65 136.323 125 140.041C127.336 136.323 130.499 133.167 134.224 130.822ZM100.093 135.346H91.046V147.214C91.046 151.326 93.2339 155.121 96.7963 157.177L120.477 170.843V155.728C120.477 144.47 111.342 135.346 100.093 135.346ZM129.523 170.843L153.189 157.177C156.751 155.121 158.953 151.326 158.953 147.214V135.346H149.908C138.644 135.346 129.523 144.47 129.523 155.728V170.843Z" fill="#FCFCFC"/>
</g>
<defs>
<clipPath id="clip0_1900_511">
<rect width="250" height="250" fill="white"/>
</clipPath>
</defs>
</svg>
