<svg width="168" height="63" viewBox="0 0 168 63" fill="none" xmlns="http://www.w3.org/2000/svg">
<path d="M67.5644 9.38965H73.7945V40.976C73.7945 43.468 73.2545 45.6485 72.1747 47.5176C71.0948 49.3866 69.6203 50.8402 67.7513 51.8786C65.8823 52.9169 63.7226 53.4361 61.2721 53.4361C58.2401 53.4361 55.7273 52.7093 53.7337 51.2556C51.7401 49.7604 50.3695 47.6837 49.6219 45.0255L54.9174 43.2188C55.2082 44.1741 55.6235 45.0255 56.1634 45.7731C56.7034 46.5207 57.3887 47.123 58.2194 47.5799C59.0916 47.9952 60.1091 48.2029 61.2721 48.2029C62.6842 48.2029 63.8472 47.8706 64.7609 47.2061C65.6746 46.5415 66.36 45.6901 66.8168 44.6517C67.3152 43.5719 67.5644 42.4297 67.5644 41.2252V9.38965ZM104.61 53H99.252L98.8159 49.3243C97.8191 50.6533 96.5523 51.6709 95.0156 52.377C93.5204 53.0831 91.8383 53.4361 89.9692 53.4361C87.5603 53.4361 85.4628 52.9377 83.6769 51.9409C81.8909 50.9025 80.4996 49.4073 79.5028 47.4553C78.5475 45.4616 78.0699 42.9904 78.0699 40.0415V21.8498H83.9884V39.2939C83.9884 42.1597 84.5699 44.3402 85.7328 45.8354C86.9373 47.3307 88.744 48.0783 91.153 48.0783C93.5204 48.0783 95.3686 47.3099 96.6977 45.7731C98.0683 44.2364 98.7536 41.952 98.7536 38.9201V21.8498H104.61V53ZM109.13 21.8498H114.487L114.861 26.0239C115.733 24.944 116.73 24.051 117.852 23.345C119.015 22.5974 120.261 22.0782 121.59 21.7875C122.96 21.4967 124.372 21.5175 125.826 21.8498V27.3945C124.455 27.0622 123.126 27.0207 121.839 27.2699C120.551 27.5191 119.388 28.059 118.35 28.8897C117.353 29.6788 116.543 30.738 115.92 32.067C115.297 33.3961 114.986 34.9952 114.986 36.8642V53H109.13V21.8498ZM128.336 21.8498H134.254V53H128.336V21.8498ZM131.326 16.3673C130.205 16.3673 129.27 15.9935 128.523 15.2459C127.775 14.4983 127.401 13.5846 127.401 12.5047C127.401 11.3833 127.775 10.4488 128.523 9.70116C129.27 8.91202 130.205 8.51745 131.326 8.51745C132.406 8.51745 133.32 8.91202 134.067 9.70116C134.856 10.4488 135.251 11.3833 135.251 12.5047C135.251 13.5846 134.856 14.4983 134.067 15.2459C133.32 15.9935 132.406 16.3673 131.326 16.3673ZM137.031 21.8498H143.76L151.049 32.7523L158.338 21.8498H165.067L154.226 37.4249L165.067 53H158.338L151.049 41.9728L143.76 53H137.031L147.809 37.4249L137.031 21.8498Z" fill="#1A1C1E"/>
<path d="M32.9766 9.73299C35.4264 9.73319 37.4131 11.7186 37.4131 14.1685V25.7769H28.5215C26.9585 25.7769 25.6905 24.5096 25.6904 22.9459V22.6148H34.2578V14.1685C34.2578 13.4607 33.6843 12.8865 32.9766 12.8863H20.4482V25.4459L20.4492 25.4986V25.5055C20.4812 29.2803 23.5417 32.3318 27.3193 32.3502H37.4131V41.1558C37.4131 44.2444 35.7645 47.0987 33.0898 48.6431L19.0371 56.7564L18.8721 56.8521L18.7061 56.7564L4.65332 48.6431C1.97837 47.0988 0.331055 44.2446 0.331055 41.1558V32.3502H10.4238C14.2005 32.3318 17.2604 29.2819 17.2939 25.5084V25.4722C17.2941 25.4616 17.2949 25.4536 17.2949 25.4459V12.8863H4.77148C4.43032 12.8864 4.10375 13.0228 3.8623 13.2642C3.62109 13.5055 3.48544 13.832 3.48535 14.1734V22.6148H12.0527V22.9459C12.0526 24.5096 10.7847 25.7769 9.22168 25.7769H0.331055V14.1734C0.331147 12.9955 0.79916 11.8664 1.63184 11.0338C2.46462 10.2004 3.59371 9.73307 4.77148 9.73299H32.9766ZM3.48535 35.5045V41.1558C3.48535 43.1171 4.53171 44.9296 6.23047 45.9107L17.2949 52.2984V42.4019C17.2904 38.6035 14.2186 35.5232 10.4238 35.5055V35.5045H3.48535ZM27.3184 35.5045L27.3193 35.5055C23.5246 35.5233 20.4522 38.6036 20.4482 42.4019V52.2984L31.5127 45.9107C33.2115 44.9296 34.2578 43.1171 34.2578 41.1558V35.5045H27.3184ZM18.8711 31.0494C18.1113 32.2051 17.1216 33.1953 15.9658 33.9547C17.1215 34.7144 18.1113 35.7043 18.8711 36.8599C19.6308 35.7043 20.6211 34.7144 21.7764 33.9547C20.621 33.1952 19.6308 32.2052 18.8711 31.0494Z" fill="#1A1C1E" stroke="#1A1C1E" stroke-width="0.661079"/>
</svg>
