<svg width="24" height="17" viewBox="0 0 24 17" fill="none" xmlns="http://www.w3.org/2000/svg">
<path d="M3.06641 16.8359C2.05078 16.8359 1.28581 16.582 0.771484 16.0742C0.257161 15.5664 0 14.8112 0 13.8086V3.02734C0 2.01823 0.244141 1.26302 0.732422 0.761719C1.2207 0.253906 1.90104 0 2.77344 0H20.498C21.5137 0 22.2786 0.253906 22.793 0.761719C23.3073 1.26302 23.5645 2.01823 23.5645 3.02734V13.8086C23.5645 14.8112 23.3203 15.5664 22.832 16.0742C22.3438 16.582 21.6634 16.8359 20.791 16.8359H3.06641ZM3.00781 15.3418H20.5469C21.0352 15.3418 21.4095 15.2116 21.6699 14.9512C21.9368 14.6908 22.0703 14.3099 22.0703 13.8086V3.02734C22.0703 2.52604 21.9368 2.14518 21.6699 1.88477C21.4095 1.62435 21.0352 1.49414 20.5469 1.49414H3.00781C2.52604 1.49414 2.15169 1.62435 1.88477 1.88477C1.62435 2.14518 1.49414 2.52279 1.49414 3.01758V13.7988C1.49414 14.3066 1.62435 14.6908 1.88477 14.9512C2.15169 15.2116 2.52604 15.3418 3.00781 15.3418ZM11.7773 10.9863C11.4648 10.9863 11.1589 10.9277 10.8594 10.8105C10.5599 10.6868 10.2702 10.498 9.99023 10.2441L0.800781 1.97266L1.81641 0.947266L10.8398 9.08203C11.1393 9.34896 11.4518 9.48242 11.7773 9.48242C12.1094 9.48242 12.4219 9.34896 12.7148 9.08203L21.7383 0.947266L22.7539 1.97266L13.5645 10.2441C13.2845 10.498 12.9948 10.6868 12.6953 10.8105C12.3958 10.9277 12.0898 10.9863 11.7773 10.9863ZM1.96289 15.5859L0.947266 14.5605L7.88086 7.62695L8.89648 8.64258L1.96289 15.5859ZM21.6113 15.5957L14.6582 8.64258L15.6836 7.62695L22.627 14.5703L21.6113 15.5957Z" fill="#9E9175"/>
</svg>
