<svg width="20" height="20" viewBox="0 0 20 20" fill="none" xmlns="http://www.w3.org/2000/svg">
<path d="M14.1797 19.0918C13.2487 19.0918 12.2624 18.903 11.2207 18.5254C10.179 18.1478 9.11784 17.5977 8.03711 16.875C6.95638 16.1523 5.89844 15.2702 4.86328 14.2285C3.8151 13.1868 2.92969 12.1257 2.20703 11.0449C1.48438 9.96419 0.934245 8.90299 0.556641 7.86133C0.185547 6.81315 0 5.82357 0 4.89258C0 4.33268 0.0520833 3.82812 0.15625 3.37891C0.266927 2.92969 0.436198 2.51953 0.664062 2.14844C0.891927 1.77734 1.19141 1.42904 1.5625 1.10352C1.60156 1.06445 1.64062 1.02865 1.67969 0.996094C1.72526 0.957031 1.76758 0.917969 1.80664 0.878906C2.46419 0.292969 3.0957 0.00651042 3.70117 0.0195312C4.05273 0.0260417 4.39128 0.133464 4.7168 0.341797C5.04883 0.54362 5.36458 0.86263 5.66406 1.29883L7.59766 4.07227C7.84505 4.42383 7.95247 4.79492 7.91992 5.18555C7.88737 5.56966 7.77669 5.91146 7.58789 6.21094L6.70898 7.58789C6.55273 7.82878 6.5332 8.05339 6.65039 8.26172C6.81315 8.54167 7.05729 8.88346 7.38281 9.28711C7.71484 9.69076 8.06641 10.0781 8.4375 10.4492C8.6849 10.6966 8.95508 10.9505 9.24805 11.2109C9.54102 11.4648 9.81771 11.696 10.0781 11.9043C10.3385 12.1061 10.5404 12.2526 10.6836 12.3438C10.8268 12.4284 10.9635 12.474 11.0938 12.4805C11.224 12.4805 11.3639 12.4479 11.5137 12.3828L13.0273 11.6406C13.4961 11.4128 13.9062 11.3086 14.2578 11.3281C14.6159 11.3411 14.9805 11.4746 15.3516 11.7285L17.8027 13.4082C18.2389 13.7077 18.5579 14.0267 18.7598 14.3652C18.9681 14.6973 19.0723 15.0391 19.0723 15.3906C19.0723 15.6901 19.0007 15.9993 18.8574 16.3184C18.7207 16.6309 18.5059 16.9499 18.2129 17.2754C18.1738 17.321 18.1348 17.3633 18.0957 17.4023C18.0632 17.4414 18.0273 17.4837 17.9883 17.5293C17.4935 18.0827 16.9466 18.4798 16.3477 18.7207C15.7552 18.9681 15.0326 19.0918 14.1797 19.0918ZM14.1895 17.6074C14.7298 17.5944 15.2279 17.4935 15.6836 17.3047C16.1393 17.1159 16.5365 16.8294 16.875 16.4453C16.901 16.4128 16.9238 16.3835 16.9434 16.3574C16.9694 16.3314 16.9954 16.3021 17.0215 16.2695C17.2819 15.9701 17.4121 15.6738 17.4121 15.3809C17.4121 15.2311 17.3796 15.0944 17.3145 14.9707C17.2559 14.847 17.1549 14.7396 17.0117 14.6484L14.7266 13.1152C14.5703 13.0176 14.4141 12.959 14.2578 12.9395C14.1081 12.9199 13.9388 12.9525 13.75 13.0371L12.1094 13.8184C11.6536 14.0397 11.276 14.1341 10.9766 14.1016C10.6771 14.069 10.3809 13.9453 10.0879 13.7305C9.86003 13.5742 9.58659 13.3659 9.26758 13.1055C8.94857 12.8451 8.62305 12.5684 8.29102 12.2754C7.96549 11.9824 7.67904 11.7122 7.43164 11.4648C7.05404 11.0938 6.66667 10.6641 6.26953 10.1758C5.87891 9.6875 5.54362 9.25781 5.26367 8.88672C5.04883 8.59375 4.92839 8.30729 4.90234 8.02734C4.8763 7.74089 4.9707 7.42513 5.18555 7.08008L6.16211 5.51758C6.3444 5.21159 6.35742 4.94466 6.20117 4.7168L4.44336 2.08008C4.26758 1.81315 4.02344 1.67969 3.71094 1.67969C3.57422 1.67969 3.42773 1.71224 3.27148 1.77734C3.12174 1.84245 2.97201 1.9401 2.82227 2.07031C2.79622 2.09635 2.76693 2.1224 2.73438 2.14844C2.70833 2.16797 2.67904 2.19076 2.64648 2.2168C2.26237 2.55534 1.97266 2.95247 1.77734 3.4082C1.58854 3.85742 1.49089 4.34896 1.48438 4.88281C1.46484 5.71615 1.65365 6.61784 2.05078 7.58789C2.45443 8.55143 2.99805 9.52148 3.68164 10.498C4.36523 11.4681 5.13346 12.3763 5.98633 13.2227C6.82617 14.0625 7.72135 14.8177 8.67188 15.4883C9.62891 16.1523 10.5794 16.6732 11.5234 17.0508C12.474 17.4349 13.3626 17.6204 14.1895 17.6074Z" fill="#9E9175"/>
</svg>
