<svg width="19" height="19" viewBox="0 0 19 19" fill="none" xmlns="http://www.w3.org/2000/svg">
<path d="M0.849609 7.49023L16.4551 0.253906C16.8132 0.0846354 17.1419 0.016276 17.4414 0.0488281C17.7474 0.0748698 17.998 0.179036 18.1934 0.361328C18.3887 0.54362 18.5059 0.78125 18.5449 1.07422C18.584 1.36719 18.5221 1.69271 18.3594 2.05078L11.1426 17.5684C11.0124 17.8483 10.8431 18.0632 10.6348 18.2129C10.4329 18.3691 10.2148 18.457 9.98047 18.4766C9.7526 18.5026 9.53776 18.4701 9.33594 18.3789C9.13411 18.2878 8.9681 18.138 8.83789 17.9297C8.70768 17.7279 8.64258 17.474 8.64258 17.168L8.62305 10.1074C8.62305 10.0098 8.57422 9.96094 8.47656 9.96094L1.35742 9.93164C1.06445 9.92513 0.813802 9.86003 0.605469 9.73633C0.403646 9.60612 0.250651 9.44336 0.146484 9.24805C0.0488281 9.04622 0.00651042 8.83464 0.0195312 8.61328C0.0325521 8.39193 0.104167 8.18034 0.234375 7.97852C0.371094 7.77669 0.576172 7.61393 0.849609 7.49023ZM2.54883 8.4082L9.44336 8.36914C9.66471 8.36914 9.84375 8.4375 9.98047 8.57422C10.1172 8.71094 10.1855 8.88672 10.1855 9.10156L10.1367 16.0059C10.1367 16.0254 10.1432 16.0384 10.1562 16.0449C10.1693 16.0449 10.179 16.0352 10.1855 16.0156L16.6504 1.99219C16.6634 1.95312 16.6634 1.93034 16.6504 1.92383C16.6374 1.91081 16.6146 1.91081 16.582 1.92383L2.54883 8.34961C2.52279 8.36263 2.50977 8.37565 2.50977 8.38867C2.51628 8.40169 2.5293 8.4082 2.54883 8.4082Z" fill="#9E9175"/>
</svg>
