<svg width="107" height="35" viewBox="0 0 107 35" fill="none" xmlns="http://www.w3.org/2000/svg">
<g clip-path="url(#clip0_1_642)">
<path d="M6.81442 34.4239C6.54022 34.4239 6.27264 34.4204 6.00059 34.4143C5.43701 34.4069 4.87475 34.3579 4.31841 34.2675C3.79966 34.1782 3.29713 34.012 2.82739 33.7744C2.36197 33.5388 1.93746 33.2299 1.57014 32.8595C1.19749 32.4934 0.887252 32.0689 0.651705 31.6027C0.413563 31.1334 0.248755 30.6304 0.163021 30.1112C0.0704357 29.5534 0.0203433 28.9893 0.0131756 28.4238C0.00746979 28.234 0 27.602 0 27.602V6.81219C0 6.81219 0.00795578 6.18994 0.0132206 6.00713C0.0200836 5.44256 0.0698848 4.87933 0.162193 4.32232C0.248085 3.8017 0.413021 3.29727 0.651291 2.82648C0.885972 2.36057 1.19449 1.93571 1.56489 1.56836C1.93487 1.19752 2.36073 0.887016 2.82695 0.648168C3.29561 0.411371 3.79719 0.246351 4.31489 0.158638C4.87305 0.0673504 5.43727 0.0179959 6.0028 0.0109887L6.81486 0H99.3036L100.125 0.0114297C100.686 0.0180887 101.245 0.0670029 101.798 0.157756C102.321 0.24657 102.828 0.412741 103.302 0.650805C104.236 1.13215 104.996 1.89369 105.475 2.82867C105.71 3.29622 105.872 3.79654 105.957 4.31265C106.05 4.87424 106.102 5.44189 106.113 6.01109C106.116 6.26596 106.116 6.53973 106.116 6.81219C106.123 7.14968 106.123 7.47091 106.123 7.79477V26.63C106.123 26.9569 106.123 27.276 106.116 27.5976C106.116 27.8903 106.116 28.1584 106.112 28.4343C106.102 28.9934 106.05 29.5509 105.958 30.1024C105.874 30.6254 105.711 31.1323 105.472 31.6054C105.235 32.0665 104.927 32.4874 104.558 32.8525C104.191 33.2249 103.766 33.5356 103.299 33.7727C102.826 34.0121 102.32 34.1789 101.798 34.2675C101.242 34.3584 100.679 34.4074 100.116 34.4143C99.8521 34.4204 99.576 34.4239 99.308 34.4239L98.3325 34.4257L6.81442 34.4239Z" fill="black"></path>
<path d="M21.5066 17.4818C21.5163 16.7307 21.7158 15.9941 22.0866 15.3408C22.4574 14.6875 22.9875 14.1385 23.6274 13.7451C23.2209 13.1645 22.6846 12.6866 22.061 12.3496C21.4375 12.0125 20.744 11.8254 20.0355 11.8032C18.5242 11.6446 17.0591 12.7076 16.289 12.7076C15.504 12.7076 14.3183 11.819 13.0415 11.8453C12.2156 11.872 11.4107 12.1121 10.7052 12.5424C9.99978 12.9726 9.41779 13.5782 9.01598 14.3003C7.27544 17.3138 8.57372 21.7426 10.241 24.1784C11.0752 25.3712 12.0501 26.7036 13.3258 26.6563C14.5741 26.6045 15.0403 25.8603 16.5471 25.8603C18.04 25.8603 18.4774 26.6563 19.7789 26.6263C21.1184 26.6045 21.9624 25.4282 22.7673 24.2241C23.3667 23.3742 23.8279 22.4349 24.1338 21.441C23.3556 21.1118 22.6915 20.5609 22.2243 19.8568C21.7571 19.1528 21.5075 18.3268 21.5066 17.4818Z" fill="white"></path>
<path d="M19.0488 10.202C19.7791 9.32525 20.1389 8.19832 20.0518 7.06055C18.936 7.17774 17.9053 7.71103 17.1651 8.55415C16.8032 8.96603 16.526 9.44521 16.3493 9.96429C16.1727 10.4834 16.1002 11.0322 16.1358 11.5793C16.6939 11.585 17.246 11.4641 17.7506 11.2255C18.2552 10.9869 18.699 10.637 19.0488 10.202Z" fill="white"></path>
<path d="M37.2845 23.6356H33.0246L32.0016 26.6563H30.1973L34.2322 15.4805H36.1068L40.1418 26.6563H38.3067L37.2845 23.6356ZM33.4658 22.2417H36.8425L35.1779 17.3393H35.1313L33.4658 22.2417Z" fill="white"></path>
<path d="M48.855 22.5851C48.855 25.1171 47.4997 26.7439 45.4546 26.7439C44.9365 26.771 44.4213 26.6517 43.9679 26.3996C43.5145 26.1474 43.1412 25.7727 42.8909 25.3184H42.8522V29.3542H41.1797V18.5106H42.7986V19.8658H42.8294C43.0912 19.4136 43.4708 19.0409 43.9276 18.7872C44.3845 18.5335 44.9015 18.4085 45.4238 18.4253C47.4918 18.4253 48.855 20.06 48.855 22.5851ZM47.1359 22.5851C47.1359 20.9354 46.2834 19.8509 44.9826 19.8509C43.7047 19.8509 42.8452 20.9583 42.8452 22.5851C42.8452 24.2268 43.7047 25.3263 44.9826 25.3263C46.2834 25.3263 47.1359 24.2497 47.1359 22.5851Z" fill="white"></path>
<path d="M57.8237 22.5851C57.8237 25.1171 56.4685 26.7439 54.4233 26.7439C53.9053 26.771 53.39 26.6517 52.9366 26.3996C52.4832 26.1474 52.11 25.7727 51.8596 25.3184H51.8209V29.3542H50.1484V18.5106H51.7673V19.8658H51.7981C52.0599 19.4136 52.4395 19.0408 52.8963 18.7872C53.3532 18.5335 53.8703 18.4085 54.3925 18.4253C56.4606 18.4253 57.8237 20.06 57.8237 22.5851ZM56.1046 22.5851C56.1046 20.9354 55.2521 19.8509 53.9514 19.8509C52.6735 19.8509 51.8139 20.9583 51.8139 22.5851C51.8139 24.2268 52.6735 25.3263 53.9514 25.3263C55.2521 25.3263 56.1046 24.2497 56.1046 22.5851Z" fill="white"></path>
<path d="M63.7511 23.5432C63.8751 24.6515 64.9517 25.3792 66.4229 25.3792C67.8327 25.3792 68.8469 24.6515 68.8469 23.6522C68.8469 22.7847 68.2352 22.2653 66.7868 21.9094L65.3384 21.5605C63.2862 21.0648 62.3335 20.105 62.3335 18.5477C62.3335 16.6194 64.0139 15.2949 66.4001 15.2949C68.7616 15.2949 70.3805 16.6194 70.435 18.5477H68.7467C68.6456 17.4324 67.7237 16.7591 66.3763 16.7591C65.029 16.7591 64.1071 17.4403 64.1071 18.4316C64.1071 19.2218 64.6959 19.6867 66.1364 20.0426L67.3677 20.3449C69.6607 20.8872 70.6134 21.8083 70.6134 23.443C70.6134 25.5338 68.9479 26.8434 66.299 26.8434C63.8205 26.8434 62.1472 25.5646 62.0391 23.5432L63.7511 23.5432Z" fill="white"></path>
<path d="M74.2226 16.582V18.5103H75.772V19.8348H74.2226V24.3267C74.2226 25.0245 74.5328 25.3497 75.2139 25.3497C75.3979 25.3465 75.5815 25.3336 75.7641 25.311V26.6276C75.4579 26.6848 75.1466 26.7107 74.8351 26.7049C73.1855 26.7049 72.5421 26.0853 72.5421 24.5051V19.8348H71.3574V18.5103H72.5421V16.582H74.2226Z" fill="white"></path>
<path d="M76.6699 22.5829C76.6699 20.0192 78.1798 18.4082 80.5343 18.4082C82.8968 18.4082 84.3997 20.0192 84.3997 22.5829C84.3997 25.1536 82.9047 26.7575 80.5343 26.7575C78.1649 26.7575 76.6699 25.1536 76.6699 22.5829ZM82.6955 22.5829C82.6955 20.8242 81.8896 19.7863 80.5343 19.7863C79.1791 19.7863 78.3741 20.8321 78.3741 22.5829C78.3741 24.3485 79.1791 25.3786 80.5343 25.3786C81.8896 25.3786 82.6955 24.3485 82.6955 22.5829Z" fill="white"></path>
<path d="M85.7793 18.5105H87.3745V19.8974H87.4132C87.5211 19.4642 87.7748 19.0814 88.1318 18.8133C88.4887 18.5453 88.927 18.4082 89.3731 18.4252C89.5658 18.4246 89.758 18.4455 89.9461 18.4876V20.0521C89.7028 19.9777 89.4489 19.9436 89.1946 19.951C88.9516 19.9411 88.7094 19.984 88.4846 20.0766C88.2597 20.1692 88.0576 20.3093 87.892 20.4874C87.7264 20.6655 87.6013 20.8773 87.5254 21.1083C87.4494 21.3393 87.4243 21.584 87.4518 21.8256V26.6586H85.7793L85.7793 18.5105Z" fill="white"></path>
<path d="M97.6567 24.2633C97.4317 25.7424 95.9912 26.7575 94.1482 26.7575C91.7779 26.7575 90.3066 25.1694 90.3066 22.6215C90.3066 20.0658 91.7858 18.4082 94.0779 18.4082C96.3322 18.4082 97.7499 19.9568 97.7499 22.4273V23.0003H91.995V23.1014C91.9684 23.4013 92.006 23.7034 92.1051 23.9876C92.2043 24.2719 92.3628 24.5318 92.5701 24.75C92.7774 24.9683 93.0288 25.14 93.3075 25.2537C93.5863 25.3674 93.8861 25.4204 94.1869 25.4093C94.5821 25.4464 94.9788 25.3548 95.3178 25.1483C95.6568 24.9419 95.9201 24.6314 96.0686 24.2633L97.6567 24.2633ZM92.0029 21.8314H96.0765C96.0915 21.5618 96.0506 21.292 95.9564 21.0389C95.8622 20.7858 95.7167 20.5549 95.529 20.3608C95.3414 20.1666 95.1156 20.0133 94.8659 19.9105C94.6162 19.8077 94.3479 19.7576 94.0779 19.7634C93.8055 19.7618 93.5356 19.8141 93.2835 19.9174C93.0315 20.0207 92.8024 20.1728 92.6095 20.3651C92.4166 20.5573 92.2637 20.7859 92.1595 21.0376C92.0554 21.2893 92.0022 21.5591 92.0029 21.8314Z" fill="white"></path>
<path d="M33.2561 7.07055C33.6067 7.04538 33.9586 7.09836 34.2863 7.22564C34.614 7.35293 34.9093 7.55135 35.151 7.80661C35.3928 8.06186 35.5748 8.36758 35.6841 8.70171C35.7933 9.03585 35.8271 9.39007 35.7829 9.73882C35.7829 11.4544 34.8557 12.4405 33.2561 12.4405H31.3164V7.07055H33.2561ZM32.1505 11.6811H33.1629C33.4135 11.6961 33.6642 11.655 33.8969 11.5608C34.1296 11.4667 34.3383 11.3218 34.508 11.1368C34.6776 10.9518 34.8039 10.7313 34.8775 10.4914C34.9512 10.2514 34.9705 9.99808 34.9339 9.74976C34.9678 9.50242 34.9466 9.25063 34.8718 9.01244C34.797 8.77425 34.6704 8.55556 34.5012 8.37203C34.3319 8.18849 34.1242 8.04467 33.8928 7.95086C33.6614 7.85705 33.4122 7.81558 33.1629 7.82941H32.1505V11.6811Z" fill="white"></path>
<path d="M36.7258 10.4113C36.7004 10.1449 36.7308 9.87625 36.8153 9.62239C36.8997 9.36854 37.0363 9.13514 37.2163 8.93716C37.3962 8.73918 37.6155 8.581 37.8602 8.47275C38.1048 8.36451 38.3694 8.30859 38.637 8.30859C38.9045 8.30859 39.1691 8.36451 39.4137 8.47275C39.6584 8.581 39.8777 8.73918 40.0577 8.93716C40.2376 9.13514 40.3742 9.36854 40.4586 9.62239C40.5431 9.87625 40.5736 10.1449 40.5481 10.4113C40.574 10.6779 40.5439 10.9469 40.4597 11.2012C40.3755 11.4555 40.239 11.6893 40.059 11.8877C39.879 12.086 39.6595 12.2445 39.4146 12.353C39.1697 12.4615 38.9048 12.5175 38.637 12.5175C38.3691 12.5175 38.1042 12.4615 37.8593 12.353C37.6144 12.2445 37.3949 12.086 37.2149 11.8877C37.0349 11.6893 36.8984 11.4555 36.8142 11.2012C36.73 10.9469 36.6999 10.6779 36.7258 10.4113ZM39.7254 10.4113C39.7254 9.53283 39.3308 9.01913 38.6383 9.01913C37.9431 9.01913 37.552 9.53283 37.552 10.4113C37.552 11.2967 37.9431 11.8065 38.6383 11.8065C39.3308 11.8065 39.7254 11.2932 39.7254 10.4113Z" fill="white"></path>
<path d="M45.6284 12.4412H44.7987L43.9612 9.45651H43.8979L43.0638 12.4412H42.2421L41.125 8.38867H41.9362L42.6622 11.481H42.722L43.5551 8.38867H44.3224L45.1556 11.481H45.2188L45.9413 8.38867H46.7411L45.6284 12.4412Z" fill="white"></path>
<path d="M47.6797 8.3869H48.4496V9.03068H48.5093C48.6107 8.79946 48.7817 8.60563 48.9985 8.47621C49.2153 8.34679 49.467 8.28822 49.7187 8.30868C49.9159 8.29385 50.1139 8.32358 50.298 8.39567C50.4821 8.46775 50.6477 8.58034 50.7824 8.7251C50.9171 8.86985 51.0175 9.04306 51.0762 9.23189C51.1349 9.42072 51.1503 9.62034 51.1214 9.81595V12.4394H50.3216V10.0168C50.3216 9.36554 50.0386 9.04167 49.4471 9.04167C49.3132 9.03543 49.1796 9.05822 49.0553 9.10846C48.9311 9.15871 48.8192 9.23523 48.7273 9.33277C48.6354 9.43031 48.5656 9.54658 48.5229 9.67359C48.4801 9.8006 48.4653 9.93536 48.4795 10.0686V12.4394H47.6797L47.6797 8.3869Z" fill="white"></path>
<path d="M52.3965 6.80469H53.1963V12.4392H52.3965V6.80469Z" fill="white"></path>
<path d="M54.3078 10.4113C54.2824 10.145 54.3129 9.87629 54.3973 9.62243C54.4818 9.36856 54.6184 9.13515 54.7984 8.93717C54.9783 8.73919 55.1977 8.581 55.4424 8.47276C55.687 8.36451 55.9516 8.30859 56.2192 8.30859C56.4867 8.30859 56.7513 8.36451 56.996 8.47276C57.2407 8.581 57.46 8.73919 57.64 8.93717C57.82 9.13515 57.9566 9.36856 58.041 9.62243C58.1255 9.87629 58.156 10.145 58.1305 10.4113C58.1565 10.6779 58.1263 10.947 58.0421 11.2013C57.9578 11.4555 57.8213 11.6894 57.6413 11.8877C57.4613 12.0861 57.2418 12.2446 56.9969 12.3531C56.7519 12.4615 56.4871 12.5176 56.2192 12.5176C55.9513 12.5176 55.6864 12.4615 55.4415 12.3531C55.1966 12.2446 54.9771 12.0861 54.7971 11.8877C54.6171 11.6894 54.4806 11.4555 54.3963 11.2013C54.3121 10.947 54.2819 10.6779 54.3078 10.4113ZM57.3075 10.4113C57.3075 9.53291 56.9128 9.0192 56.2203 9.0192C55.5251 9.0192 55.134 9.53291 55.134 10.4114C55.134 11.2968 55.5251 11.8066 56.2203 11.8066C56.9128 11.8066 57.3075 11.2933 57.3075 10.4113Z" fill="white"></path>
<path d="M58.9727 11.2933C58.9727 10.5638 59.5158 10.1432 60.4799 10.0835L61.5777 10.0202V9.67041C61.5777 9.2424 61.2947 9.00071 60.748 9.00071C60.3015 9.00071 59.9922 9.16462 59.9034 9.45113H59.1291C59.2108 8.75506 59.8656 8.30859 60.7849 8.30859C61.8009 8.30859 62.3739 8.81438 62.3739 9.67041V12.4393H61.604V11.8698H61.5407C61.4123 12.0741 61.2319 12.2406 61.0181 12.3524C60.8042 12.4642 60.5645 12.5172 60.3235 12.5061C60.1534 12.5238 59.9814 12.5056 59.8187 12.4528C59.6561 12.4 59.5063 12.3136 59.379 12.1994C59.2517 12.0851 59.1498 11.9454 59.0798 11.7894C59.0098 11.6333 58.9733 11.4643 58.9727 11.2933ZM61.5777 10.947V10.6082L60.588 10.6715C60.0299 10.7088 59.7768 10.8986 59.7768 11.2559C59.7768 11.6206 60.0932 11.8329 60.5283 11.8329C60.6558 11.8458 60.7845 11.8329 60.9069 11.795C61.0293 11.7572 61.1429 11.695 61.2408 11.6124C61.3387 11.5297 61.419 11.4282 61.4768 11.3139C61.5347 11.1996 61.569 11.0748 61.5777 10.947Z" fill="white"></path>
<path d="M63.4258 10.4112C63.4258 9.13065 64.0841 8.31945 65.108 8.31945C65.3612 8.30778 65.6126 8.36844 65.8326 8.49434C66.0527 8.62024 66.2324 8.80618 66.3507 9.03042H66.4105V6.80469H67.2102V12.4392H66.4439V11.7989H66.3806C66.2531 12.0216 66.0672 12.2053 65.8429 12.3299C65.6185 12.4545 65.3644 12.5154 65.108 12.506C64.077 12.506 63.4258 11.6948 63.4258 10.4112ZM64.252 10.4112C64.252 11.2707 64.6571 11.7879 65.3347 11.7879C66.0088 11.7879 66.4254 11.2633 66.4254 10.4147C66.4254 9.57009 66.0044 9.03793 65.3347 9.03793C64.6615 9.03793 64.252 9.55866 64.252 10.4112Z" fill="white"></path>
<path d="M70.5188 10.4113C70.4933 10.1449 70.5238 9.87625 70.6082 9.62239C70.6927 9.36854 70.8293 9.13514 71.0092 8.93716C71.1892 8.73918 71.4085 8.581 71.6531 8.47275C71.8978 8.36451 72.1624 8.30859 72.4299 8.30859C72.6975 8.30859 72.962 8.36451 73.2067 8.47275C73.4514 8.581 73.6707 8.73918 73.8506 8.93716C74.0306 9.13514 74.1671 9.36854 74.2516 9.62239C74.3361 9.87625 74.3665 10.1449 74.341 10.4113C74.367 10.6779 74.3369 10.9469 74.2527 11.2012C74.1684 11.4555 74.0319 11.6893 73.852 11.8877C73.672 12.086 73.4525 12.2445 73.2076 12.353C72.9627 12.4615 72.6978 12.5175 72.4299 12.5175C72.1621 12.5175 71.8972 12.4615 71.6523 12.353C71.4074 12.2445 71.1879 12.086 71.0079 11.8877C70.8279 11.6893 70.6914 11.4555 70.6072 11.2012C70.5229 10.9469 70.4928 10.6779 70.5188 10.4113ZM73.5184 10.4113C73.5184 9.53283 73.1238 9.01913 72.4312 9.01913C71.7361 9.01913 71.345 9.53283 71.345 10.4113C71.345 11.2967 71.7361 11.8065 72.4312 11.8065C73.1238 11.8065 73.5184 11.2932 73.5184 10.4113Z" fill="white"></path>
<path d="M75.4122 8.3869H76.1821V9.03068H76.2418C76.3432 8.79946 76.5142 8.60563 76.731 8.47621C76.9478 8.34679 77.1995 8.28822 77.4512 8.30868C77.6484 8.29385 77.8463 8.32358 78.0305 8.39567C78.2146 8.46775 78.3802 8.58034 78.5149 8.7251C78.6496 8.86985 78.75 9.04306 78.8087 9.23189C78.8674 9.42072 78.8828 9.62034 78.8539 9.81595V12.4394H78.0541V10.0168C78.0541 9.36554 77.7711 9.04167 77.1796 9.04167C77.0457 9.03543 76.9121 9.05822 76.7878 9.10846C76.6636 9.15871 76.5517 9.23523 76.4598 9.33277C76.3678 9.43031 76.2981 9.54658 76.2553 9.67359C76.2126 9.8006 76.1978 9.93536 76.2119 10.0686V12.4394H75.4122V8.3869Z" fill="white"></path>
<path d="M83.3737 7.37695V8.40436H84.2517V9.07802H83.3737V11.1618C83.3737 11.5863 83.5486 11.7722 83.9467 11.7722C84.0486 11.7719 84.1505 11.7657 84.2517 11.7538V12.42C84.1081 12.4456 83.9625 12.4593 83.8166 12.4608C82.9272 12.4608 82.573 12.1479 82.573 11.3666V9.07799H81.9297V8.40432H82.573V7.37695H83.3737Z" fill="white"></path>
<path d="M85.3457 6.80469H86.1385V9.03792H86.2017C86.308 8.80454 86.4837 8.60961 86.7049 8.47971C86.926 8.3498 87.1818 8.29122 87.4374 8.31197C87.6335 8.30129 87.8296 8.33404 88.0117 8.40788C88.1937 8.48171 88.3572 8.59482 88.4905 8.73912C88.6238 8.88342 88.7237 9.05536 88.7829 9.24267C88.8421 9.42999 88.8592 9.62806 88.833 9.82276V12.4392H88.0325V10.0201C88.0325 9.37276 87.731 9.04494 87.1659 9.04494C87.0284 9.03367 86.8902 9.05256 86.7608 9.10031C86.6314 9.14806 86.514 9.2235 86.4168 9.32136C86.3196 9.41922 86.245 9.53714 86.1981 9.66686C86.1512 9.79658 86.1333 9.93497 86.1455 10.0723V12.4392H85.3457L85.3457 6.80469Z" fill="white"></path>
<path d="M93.4969 11.3452C93.3882 11.7156 93.1528 12.0359 92.8317 12.2503C92.5107 12.4646 92.1246 12.5592 91.7409 12.5176C91.4739 12.5247 91.2085 12.4735 90.9633 12.3677C90.7181 12.262 90.4988 12.1041 90.3207 11.9051C90.1425 11.7061 90.0099 11.4707 89.9318 11.2152C89.8538 10.9598 89.8323 10.6905 89.8688 10.4259C89.8333 10.1605 89.8552 9.89056 89.933 9.63436C90.0108 9.37817 90.1428 9.14168 90.32 8.94092C90.4972 8.74017 90.7154 8.57982 90.9599 8.47073C91.2045 8.36165 91.4696 8.30638 91.7373 8.30866C92.8649 8.30866 93.5452 9.07904 93.5452 10.3516V10.6307H90.6836V10.6755C90.671 10.8242 90.6897 10.9739 90.7384 11.115C90.7871 11.256 90.8648 11.3854 90.9664 11.4947C91.068 11.604 91.1914 11.6909 91.3285 11.7497C91.4657 11.8086 91.6136 11.8381 91.7628 11.8365C91.9541 11.8594 92.148 11.825 92.3196 11.7375C92.4913 11.65 92.6331 11.5134 92.727 11.3452L93.4969 11.3452ZM90.6835 10.0392H92.7304C92.7405 9.90316 92.722 9.76655 92.6762 9.6381C92.6303 9.50966 92.5581 9.39223 92.4642 9.29336C92.3702 9.1945 92.2566 9.11637 92.1307 9.06402C92.0048 9.01166 91.8693 8.98623 91.7329 8.98935C91.5946 8.98762 91.4573 9.01359 91.3292 9.06574C91.2011 9.11789 91.0847 9.19516 90.9869 9.293C90.8891 9.39083 90.8119 9.50726 90.7598 9.63541C90.7077 9.76356 90.6817 9.90085 90.6835 10.0392Z" fill="white"></path>
</g>
<defs>
<clipPath id="clip0_1_642">
<rect width="106.123" height="34.4257" rx="4.49986" fill="white"></rect>
</clipPath>
</defs>
</svg>