<svg width="116" height="35" viewBox="0 0 116 35" fill="none" xmlns="http://www.w3.org/2000/svg">
<g clip-path="url(#clip0_1_630)">
<path d="M111.431 34.3548H4.2858C1.88575 34.3548 0 32.469 0 30.069V4.35416C0 1.95411 1.88575 0.0683594 4.2858 0.0683594H111.431C113.831 0.0683594 115.717 1.95411 115.717 4.35416V30.069C115.717 32.469 113.831 34.3548 111.431 34.3548Z" fill="black"></path>
<path d="M40.6273 8.813C40.6273 9.49873 40.4559 10.0987 40.0273 10.5273C39.513 11.0416 38.913 11.2988 38.1416 11.2988C37.3701 11.2988 36.7701 11.0416 36.2558 10.5273C35.7415 10.013 35.4844 9.41302 35.4844 8.64157C35.4844 7.87013 35.7415 7.27012 36.2558 6.75582C36.7701 6.24152 37.3701 5.98438 38.1416 5.98438C38.4844 5.98438 38.8273 6.07009 39.1702 6.24152C39.513 6.41295 39.7702 6.58439 39.9416 6.84154L39.513 7.27012C39.1702 6.84153 38.7416 6.6701 38.1416 6.6701C37.6273 6.6701 37.113 6.84153 36.7701 7.27012C36.3415 7.61298 36.1701 8.12728 36.1701 8.72729C36.1701 9.3273 36.3415 9.8416 36.7701 10.1845C37.1987 10.5273 37.6273 10.7845 38.1416 10.7845C38.7416 10.7845 39.1702 10.613 39.5987 10.1845C39.8559 9.92731 40.0273 9.58445 40.0273 9.15587H38.1416V8.47014H40.6273V8.813ZM44.5703 6.6701H42.2559V8.29871H44.3988V8.89872H42.2559V10.5273H44.5703V11.2131H41.5702V6.07009H44.5703V6.6701ZM47.3989 11.2131H46.7132V6.6701H45.256V6.07009H48.8561V6.6701H47.3989V11.2131ZM51.3418 11.2131V6.07009H52.0276V11.2131H51.3418ZM54.9419 11.2131H54.2562V6.6701H52.799V6.07009H56.3134V6.6701H54.8562V11.2131H54.9419ZM63.0849 10.5273C62.5706 11.0416 61.9706 11.2988 61.1992 11.2988C60.4277 11.2988 59.8277 11.0416 59.3134 10.5273C58.7991 10.013 58.542 9.41302 58.542 8.64157C58.542 7.87013 58.7991 7.27012 59.3134 6.75582C59.8277 6.24152 60.4277 5.98438 61.1992 5.98438C61.9706 5.98438 62.5706 6.24152 63.0849 6.75582C63.5992 7.27012 63.8564 7.87013 63.8564 8.64157C63.8564 9.41302 63.5992 10.013 63.0849 10.5273ZM59.8277 10.0987C60.1706 10.4416 60.6849 10.6988 61.1992 10.6988C61.7135 10.6988 62.2278 10.5273 62.5706 10.0987C62.9135 9.75588 63.1706 9.24158 63.1706 8.64157C63.1706 8.04156 62.9992 7.52726 62.5706 7.1844C62.2278 6.84154 61.7135 6.58439 61.1992 6.58439C60.6849 6.58439 60.1706 6.75582 59.8277 7.1844C59.4849 7.52726 59.2277 8.04156 59.2277 8.64157C59.2277 9.24158 59.3991 9.75588 59.8277 10.0987ZM64.7993 11.2131V6.07009H65.5707L68.0565 10.0987V6.07009H68.7422V11.2131H68.0565L65.3993 7.01297V11.2131H64.7993Z" fill="white" stroke="white" stroke-width="0.171432" stroke-miterlimit="10"></path>
<path d="M58.3718 18.7552C56.3147 18.7552 54.6861 20.2981 54.6861 22.441C54.6861 24.4982 56.3147 26.1268 58.3718 26.1268C60.429 26.1268 62.0576 24.5839 62.0576 22.441C62.0576 20.2124 60.429 18.7552 58.3718 18.7552ZM58.3718 24.5839C57.2575 24.5839 56.3147 23.641 56.3147 22.3553C56.3147 21.0695 57.2575 20.1267 58.3718 20.1267C59.4862 20.1267 60.429 20.9838 60.429 22.3553C60.429 23.641 59.4862 24.5839 58.3718 24.5839ZM50.4003 18.7552C48.3431 18.7552 46.7145 20.2981 46.7145 22.441C46.7145 24.4982 48.3431 26.1268 50.4003 26.1268C52.4574 26.1268 54.086 24.5839 54.086 22.441C54.086 20.2124 52.4574 18.7552 50.4003 18.7552ZM50.4003 24.5839C49.2859 24.5839 48.3431 23.641 48.3431 22.3553C48.3431 21.0695 49.2859 20.1267 50.4003 20.1267C51.5146 20.1267 52.4574 20.9838 52.4574 22.3553C52.4574 23.641 51.5146 24.5839 50.4003 24.5839ZM40.8858 19.8695V21.4124H44.5716C44.4858 22.2696 44.143 22.9553 43.7144 23.3839C43.2001 23.8982 42.3429 24.4982 40.8858 24.4982C38.5714 24.4982 36.8571 22.6982 36.8571 20.3838C36.8571 18.0695 38.6572 16.2695 40.8858 16.2695C42.0858 16.2695 43.0287 16.7837 43.7144 17.3838L44.8287 16.2695C43.8858 15.4123 42.6858 14.7266 40.9715 14.7266C37.8857 14.7266 35.2285 17.298 35.2285 20.3838C35.2285 23.4696 37.8857 26.0411 40.9715 26.0411C42.6858 26.0411 43.8858 25.5268 44.9144 24.4125C45.943 23.3839 46.2859 21.9267 46.2859 20.8124C46.2859 20.4695 46.2859 20.1267 46.2002 19.8695H40.8858ZM79.8009 21.0695C79.458 20.2124 78.6008 18.7552 76.7151 18.7552C74.8293 18.7552 73.2864 20.2124 73.2864 22.441C73.2864 24.4982 74.8293 26.1268 76.8865 26.1268C78.5151 26.1268 79.5437 25.0982 79.8866 24.4982L78.6866 23.641C78.258 24.241 77.7437 24.6696 76.8865 24.6696C76.0293 24.6696 75.5151 24.3268 75.0865 23.5553L79.9723 21.4981L79.8009 21.0695ZM74.8293 22.2696C74.8293 20.8981 75.9436 20.1267 76.7151 20.1267C77.3151 20.1267 77.9151 20.4695 78.0865 20.8981L74.8293 22.2696ZM70.8007 25.7839H72.4293V15.0694H70.8007V25.7839ZM68.2292 19.5267C67.8006 19.0981 67.1149 18.6695 66.2577 18.6695C64.4577 18.6695 62.7434 20.2981 62.7434 22.3553C62.7434 24.4125 64.372 25.9554 66.2577 25.9554C67.1149 25.9554 67.8006 25.5268 68.1435 25.0982H68.2292V25.6125C68.2292 26.984 67.4577 27.7554 66.2577 27.7554C65.3148 27.7554 64.6291 27.0697 64.4577 26.4697L63.0862 27.0697C63.5148 28.0125 64.5434 29.2126 66.3434 29.2126C68.2292 29.2126 69.7721 28.0983 69.7721 25.4411V18.9266H68.2292V19.5267ZM66.3434 24.5839C65.2291 24.5839 64.2863 23.641 64.2863 22.3553C64.2863 21.0695 65.2291 20.1267 66.3434 20.1267C67.4577 20.1267 68.3149 21.0695 68.3149 22.3553C68.3149 23.641 67.4577 24.5839 66.3434 24.5839ZM87.2582 15.0694H83.4009V25.7839H85.0295V21.7553H87.2582C89.0582 21.7553 90.7725 20.4695 90.7725 18.4124C90.7725 16.3552 89.0582 15.0694 87.2582 15.0694ZM87.3439 20.2124H85.0295V16.5266H87.3439C88.5439 16.5266 89.2296 17.5552 89.2296 18.3266C89.1439 19.2695 88.4582 20.2124 87.3439 20.2124ZM97.2012 18.6695C96.0012 18.6695 94.8012 19.1838 94.3726 20.2981L95.8298 20.8981C96.1726 20.2981 96.6869 20.1267 97.2869 20.1267C98.1441 20.1267 98.9155 20.641 99.0012 21.4981V21.5838C98.7441 21.4124 98.0584 21.1553 97.3726 21.1553C95.8298 21.1553 94.2869 22.0124 94.2869 23.5553C94.2869 25.0125 95.5726 25.9554 96.9441 25.9554C98.0584 25.9554 98.5727 25.4411 99.0012 24.9268H99.087V25.7839H100.63V21.6696C100.458 19.7838 99.0012 18.6695 97.2012 18.6695ZM97.0298 24.5839C96.5155 24.5839 95.744 24.3268 95.744 23.641C95.744 22.7839 96.6869 22.5267 97.4584 22.5267C98.1441 22.5267 98.4869 22.6982 98.9155 22.8696C98.7441 23.8982 97.8869 24.5839 97.0298 24.5839ZM106.03 18.9266L104.23 23.5553H104.144L102.258 18.9266H100.544L103.373 25.4411L101.744 29.0411H103.373L107.744 18.9266H106.03ZM91.6297 25.7839H93.2583V15.0694H91.6297V25.7839Z" fill="white"></path>
<path d="M8.91513 6.49805C8.65798 6.75519 8.57227 7.18377 8.57227 7.69807V26.6413C8.57227 27.1556 8.7437 27.5842 9.00085 27.8413L9.08656 27.9271L19.7154 17.2983V17.1268L8.91513 6.49805Z" fill="url(#paint0_linear_1_630)"></path>
<path d="M23.1433 20.8991L19.6289 17.3848V17.1276L23.1433 13.6133L23.229 13.699L27.4291 16.099C28.6291 16.7848 28.6291 17.8991 27.4291 18.5848L23.1433 20.8991Z" fill="url(#paint1_linear_1_630)"></path>
<path d="M23.2288 20.813L19.6287 17.2129L8.91423 27.9274C9.34281 28.356 9.94282 28.356 10.7143 28.0131L23.2288 20.813Z" fill="url(#paint2_linear_1_630)"></path>
<path d="M23.2286 13.613L10.7141 6.49857C9.94266 6.06999 9.34264 6.1557 8.91406 6.58428L19.6286 17.2131L23.2286 13.613Z" fill="url(#paint3_linear_1_630)"></path>
<path opacity="0.2" d="M23.1429 20.7285L10.7141 27.7572C10.0284 28.1858 9.42836 28.1001 8.99978 27.7572L8.91406 27.8429L8.99978 27.9287C9.42836 28.2715 10.0284 28.3572 10.7141 27.9287L23.1429 20.7285Z" fill="black"></path>
<path opacity="0.12" d="M8.91513 27.756C8.65798 27.4988 8.57227 27.0702 8.57227 26.5559V26.6417C8.57227 27.156 8.7437 27.5845 9.00085 27.8417V27.756H8.91513ZM27.4298 18.3272L23.144 20.7272L23.2297 20.813L27.4298 18.4129C28.0298 18.0701 28.287 17.6415 28.287 17.2129C28.287 17.6415 27.9441 17.9843 27.4298 18.3272Z" fill="black"></path>
<path opacity="0.25" d="M10.7152 6.58344L27.4298 16.0979C27.9441 16.4408 28.287 16.7837 28.287 17.2122C28.287 16.7837 28.0298 16.3551 27.4298 16.0122L10.7152 6.49773C9.51514 5.812 8.57227 6.32629 8.57227 7.69775V7.78347C8.57227 6.49773 9.51514 5.89771 10.7152 6.58344Z" fill="white"></path>
</g>
<defs>
<linearGradient id="paint0_linear_1_630" x1="18.6868" y1="7.53521" x2="4.30104" y2="21.9201" gradientUnits="userSpaceOnUse">
<stop stop-color="#00A0FF"></stop>
<stop offset="0.007" stop-color="#00A1FF"></stop>
<stop offset="0.26" stop-color="#00BEFF"></stop>
<stop offset="0.512" stop-color="#00D2FF"></stop>
<stop offset="0.76" stop-color="#00DFFF"></stop>
<stop offset="1" stop-color="#00E3FF"></stop>
</linearGradient>
<linearGradient id="paint1_linear_1_630" x1="29.0011" y1="17.2142" x2="8.26039" y2="17.2142" gradientUnits="userSpaceOnUse">
<stop stop-color="#FFE000"></stop>
<stop offset="0.409" stop-color="#FFBD00"></stop>
<stop offset="0.775" stop-color="#FFA500"></stop>
<stop offset="1" stop-color="#FF9C00"></stop>
</linearGradient>
<linearGradient id="paint2_linear_1_630" x1="21.2805" y1="19.1809" x2="1.77323" y2="38.6882" gradientUnits="userSpaceOnUse">
<stop stop-color="#FF3A44"></stop>
<stop offset="1" stop-color="#C31162"></stop>
</linearGradient>
<linearGradient id="paint3_linear_1_630" x1="6.25429" y1="0.220725" x2="14.9656" y2="8.93205" gradientUnits="userSpaceOnUse">
<stop stop-color="#32A071"></stop>
<stop offset="0.069" stop-color="#2DA771"></stop>
<stop offset="0.476" stop-color="#15CF74"></stop>
<stop offset="0.801" stop-color="#06E775"></stop>
<stop offset="1" stop-color="#00F076"></stop>
</linearGradient>
<clipPath id="clip0_1_630">
<rect width="115.717" height="34.4257" rx="5.29626" fill="white"></rect>
</clipPath>
</defs>
</svg>